<?xml version="1.0" encoding="UTF-8"?>
<svg width="300" height="210" viewBox="0 0 300 210" xmlns="http://www.w3.org/2000/svg">
  <rect width="300" height="210" fill="#fff"/>
  <g>
    <rect width="300" height="16.15" y="0" fill="#B22234"/>
    <rect width="300" height="16.15" y="32.3" fill="#B22234"/>
    <rect width="300" height="16.15" y="64.6" fill="#B22234"/>
    <rect width="300" height="16.15" y="96.9" fill="#B22234"/>
    <rect width="300" height="16.15" y="129.2" fill="#B22234"/>
    <rect width="300" height="16.15" y="161.5" fill="#B22234"/>
    <rect width="300" height="16.15" y="193.8" fill="#B22234"/>
  </g>
  <rect width="120" height="112.5" fill="#3C3B6E"/>
  <g fill="#fff">
    <circle cx="20" cy="20" r="4"/>
    <circle cx="40" cy="20" r="4"/>
    <circle cx="60" cy="20" r="4"/>
    <circle cx="80" cy="20" r="4"/>
    <circle cx="100" cy="20" r="4"/>
    <circle cx="30" cy="35" r="4"/>
    <circle cx="50" cy="35" r="4"/>
    <circle cx="70" cy="35" r="4"/>
    <circle cx="90" cy="35" r="4"/>
    <circle cx="20" cy="50" r="4"/>
    <circle cx="40" cy="50" r="4"/>
    <circle cx="60" cy="50" r="4"/>
    <circle cx="80" cy="50" r="4"/>
    <circle cx="100" cy="50" r="4"/>
    <circle cx="30" cy="65" r="4"/>
    <circle cx="50" cy="65" r="4"/>
    <circle cx="70" cy="65" r="4"/>
    <circle cx="90" cy="65" r="4"/>
    <circle cx="20" cy="80" r="4"/>
    <circle cx="40" cy="80" r="4"/>
    <circle cx="60" cy="80" r="4"/>
    <circle cx="80" cy="80" r="4"/>
    <circle cx="100" cy="80" r="4"/>
    <circle cx="30" cy="95" r="4"/>
    <circle cx="50" cy="95" r="4"/>
    <circle cx="70" cy="95" r="4"/>
    <circle cx="90" cy="95" r="4"/>
  </g>
</svg> 